<?xml version="1.0" encoding="UTF-8" standalone="no"?>
<!DOCTYPE svg PUBLIC "-//W3C//DTD SVG 1.1//EN" "http://www.w3.org/Graphics/SVG/1.1/DTD/svg11.dtd">
<svg xmlns="http://www.w3.org/2000/svg" version="1.1" viewBox="0.00 0.00 333.00 317.00">
<g stroke-width="2.00" fill="none" stroke-linecap="butt">
<path stroke="#4aa5f2" vector-effect="non-scaling-stroke" d="
  M 189.19 1.20
  Q 189.49 1.92 190.75 1.83
  Q 191.48 1.78 191.06 2.38
  Q 190.40 3.32 190.90 4.63
  Q 191.13 5.23 190.97 5.85
  Q 190.45 7.83 191.00 10.04
  Q 191.12 10.49 190.97 10.94
  Q 190.44 12.56 190.67 14.17
  Q 191.23 17.97 191.09 21.48
  Q 190.98 24.26 191.17 27.06
  Q 191.21 27.63 190.81 28.06
  Q 190.47 28.41 190.37 28.89
  Q 189.94 30.85 191.41 31.59
  Q 191.89 31.83 191.63 32.31
  L 191.41 32.69
  Q 191.16 33.16 191.17 33.69
  Q 191.23 36.72 191.58 39.77
  Q 191.92 42.66 191.84 45.76
  Q 191.58 55.62 191.38 58.75
  Q 191.13 62.63 191.15 65.90
  C 191.16 68.36 190.47 70.59 190.38 73.05
  Q 190.07 80.95 190.00 89.10
  Q 190.00 89.77 189.44 90.20
  Q 188.92 90.62 189.22 91.21
  Q 189.74 92.26 189.36 93.29
  Q 189.14 93.88 189.77 93.97
  Q 190.05 94.01 190.18 94.25
  Q 190.96 95.75 189.83 94.50
  Q 187.87 92.33 187.15 93.87"
/>
<path stroke="#a4d5f9" vector-effect="non-scaling-stroke" d="
  M 187.15 93.87
  L 150.22 65.79"
/>
<path stroke="#49b0f4" vector-effect="non-scaling-stroke" d="
  M 150.22 65.79
  Q 150.77 64.94 151.79 65.95
  Q 152.12 66.28 152.54 66.08
  Q 152.86 65.94 152.99 66.28
  Q 153.19 66.80 153.75 66.78
  Q 154.50 66.76 154.61 66.07
  Q 155.02 63.53 155.76 60.72
  A 0.67 0.65 41.0 0 0 155.72 60.25
  Q 155.65 60.08 155.47 60.03
  Q 155.02 59.92 155.03 59.46
  Q 155.19 46.46 155.34 33.46
  C 155.36 31.41 156.04 29.51 155.69 27.50
  Q 155.33 25.46 155.38 23.33
  Q 155.49 18.48 155.67 13.75
  Q 155.71 12.59 155.08 11.81
  Q 154.87 11.55 155.07 11.30
  Q 155.49 10.79 155.35 10.06
  A 1.37 1.37 0.0 0 1 155.39 9.37
  Q 156.54 5.93 156.09 2.25
  Q 156.06 1.98 155.79 1.94
  Q 155.65 1.92 155.51 1.91
  Q 155.23 1.88 155.51 1.84
  Q 155.60 1.83 155.66 1.81
  Q 156.16 1.61 155.62 1.55
  Q 154.39 1.43 154.51 0.84"
/>
<path stroke="#a5cff8" vector-effect="non-scaling-stroke" d="
  M 215.71 143.64
  L 186.48 165.90"
/>
<path stroke="#a4d5f9" vector-effect="non-scaling-stroke" d="
  M 186.48 165.90
  L 155.07 189.84"
/>
<path stroke="#4d97f0" vector-effect="non-scaling-stroke" d="
  M 221.86 4.70
  Q 221.62 8.12 221.56 11.25
  Q 221.55 11.93 221.67 12.60
  Q 221.81 13.35 221.76 13.92
  Q 221.57 16.22 221.80 18.66
  Q 222.13 21.97 222.11 23.37
  Q 222.00 31.23 221.69 39.20
  C 221.56 42.30 222.00 45.36 221.85 48.43
  Q 221.70 51.70 221.76 55.33
  Q 222.00 68.21 221.85 81.25
  Q 221.83 82.77 221.35 86.29
  Q 221.18 87.51 221.11 88.67
  Q 221.04 89.98 220.79 91.31
  Q 219.69 97.05 220.22 106.23
  A 1.08 1.03 -32.1 0 1 220.06 106.85
  Q 219.74 107.37 219.93 107.92
  C 220.44 109.43 220.09 112.18 220.01 114.50
  Q 219.93 116.85 222.09 118.14
  Q 222.27 118.24 222.20 118.44
  Q 222.16 118.56 222.09 118.67
  Q 221.80 119.09 221.41 118.77
  Q 219.13 116.88 217.50 116.89"
/>
<path stroke="#a5cff8" vector-effect="non-scaling-stroke" d="
  M 217.50 116.89
  L 187.15 93.87"
/>
<path stroke="#a4dbfa" vector-effect="non-scaling-stroke" d="
  M 150.22 65.79
  Q 145.00 61.63 140.17 64.88
  Q 134.06 69.00 134.08 78.44
  Q 134.21 127.96 134.05 179.70
  C 134.04 185.71 135.13 190.99 140.19 194.34
  C 145.98 198.18 150.81 193.08 155.07 189.84"
/>
<path stroke="#49b0f4" vector-effect="non-scaling-stroke" d="
  M 155.07 189.84
  Q 156.37 190.25 154.37 192.04
  Q 154.02 192.36 153.54 192.42
  Q 152.93 192.49 152.40 192.81
  A 0.15 0.15 0.0 0 0 152.51 193.08
  Q 152.94 193.00 153.24 193.33
  Q 153.60 193.74 153.37 194.23
  Q 153.04 194.97 153.41 195.60
  Q 153.67 196.02 153.61 196.52
  L 153.25 199.51
  Q 153.18 200.08 153.51 199.61
  Q 153.89 199.07 154.52 199.29
  A 1.05 1.04 11.1 0 1 155.21 200.31
  C 154.77 210.83 155.59 221.08 155.61 231.48
  Q 155.63 244.91 155.57 257.59
  Q 155.55 260.57 155.39 263.42
  Q 155.06 269.57 155.06 276.01
  Q 155.06 277.43 154.39 278.74
  Q 154.32 278.88 154.16 278.84
  Q 153.86 278.78 153.83 279.08
  Q 153.76 279.70 154.83 280.81"
/>
<path stroke="#47bbf6" vector-effect="non-scaling-stroke" d="
  M 131.44 269.17
  Q 131.12 268.49 131.47 267.49
  Q 131.59 267.14 131.29 266.92
  L 129.55 265.69
  Q 129.30 265.52 129.39 265.22
  Q 129.81 263.73 129.42 262.07
  Q 129.17 261.01 129.33 259.84
  Q 130.29 252.92 130.23 243.90
  Q 130.10 225.99 130.10 208.13
  C 130.10 204.65 129.76 201.25 129.88 197.79
  Q 130.01 193.92 130.02 190.52
  Q 130.28 123.01 130.05 53.05
  Q 130.04 48.45 129.79 43.50
  Q 129.56 38.74 129.95 34.17
  Q 130.11 32.32 131.99 32.84
  Q 132.52 32.99 132.69 33.50
  C 133.01 34.46 132.78 35.21 132.82 36.14
  Q 133.21 45.10 133.11 53.62
  Q 133.11 53.63 133.12 53.63
  Q 133.12 53.63 133.12 53.63
  Q 133.18 53.63 133.18 53.57
  C 133.11 46.18 132.80 38.55 133.40 31.17
  Q 133.76 26.80 133.62 24.00
  Q 133.34 18.31 133.12 12.24
  C 133.07 10.84 133.53 9.03 133.15 7.15
  Q 132.92 6.00 133.57 5.13
  Q 133.89 4.70 133.46 4.37
  Q 132.61 3.73 132.96 2.49"
/>
<path stroke="#4f8bee" vector-effect="non-scaling-stroke" d="
  M 257.18 13.03
  L 256.13 30.79
  Q 256.11 31.25 256.46 31.56
  Q 256.76 31.82 256.71 32.26
  C 256.54 33.90 256.25 35.47 256.39 37.17
  Q 256.78 42.32 256.37 47.45
  Q 256.33 47.95 256.59 48.38
  Q 257.47 49.79 256.60 51.22
  Q 256.34 51.65 256.32 52.15
  Q 256.03 57.83 256.19 63.15
  Q 256.33 67.71 256.39 72.49
  Q 256.53 84.44 256.23 98.72
  Q 256.22 99.30 256.44 99.80
  Q 256.64 100.29 256.52 100.78
  C 256.06 102.63 256.39 105.33 256.33 107.30
  Q 256.31 107.82 256.67 108.20
  Q 256.96 108.49 256.69 108.79
  Q 256.32 109.19 256.33 109.73
  Q 256.39 112.82 256.38 116.94
  A 66.66 2.56 88.7 0 0 256.37 124.88
  Q 256.45 155.76 256.27 183.91
  A 36.54 34.72 68.1 0 0 256.58 189.04
  Q 256.61 189.27 256.35 192.02
  Q 256.21 193.45 256.23 194.91
  Q 256.45 207.83 256.36 220.39
  C 256.35 221.57 255.94 222.67 256.15 223.84
  Q 256.37 225.02 256.37 226.25
  Q 256.37 230.19 256.35 234.45
  Q 256.35 234.65 256.36 234.85
  Q 256.53 238.78 255.85 242.48
  Q 255.70 243.30 256.13 244.02
  Q 256.40 244.49 256.05 244.91
  Q 255.31 245.79 254.98 246.99"
/>
<path stroke="#4d97f0" vector-effect="non-scaling-stroke" d="
  M 220.71 253.56
  L 219.61 253.41
  Q 218.96 253.32 219.18 252.70
  Q 219.33 252.31 219.06 251.92
  Q 218.71 251.41 218.69 250.78
  Q 218.63 249.10 218.62 247.42
  Q 218.62 246.57 218.91 244.09
  Q 219.13 242.20 218.83 240.29
  Q 218.59 238.72 218.85 237.27
  Q 219.12 235.78 219.04 234.16
  Q 218.95 232.27 218.93 230.32
  Q 218.90 226.84 218.81 223.50
  Q 218.72 219.98 218.81 216.70
  C 218.85 215.22 218.27 213.94 218.59 212.48
  C 219.02 210.49 218.79 208.57 218.87 206.58
  Q 219.23 197.12 219.20 193.00
  Q 219.06 174.75 219.14 154.35
  C 219.14 152.63 219.84 151.40 218.76 149.74
  Q 218.26 148.98 218.88 148.25
  A 1.28 1.22 -24.6 0 0 219.18 147.50
  L 219.34 144.12
  Q 219.37 143.56 218.86 143.31
  Q 218.59 143.18 218.38 143.33
  Q 217.61 143.89 217.15 144.72
  Q 216.92 145.14 216.45 145.17
  Q 215.99 145.20 216.01 144.74
  Q 216.02 144.34 215.71 143.64"
/>
<path stroke="#a7c7f7" vector-effect="non-scaling-stroke" d="
  M 215.71 143.64
  C 219.40 140.81 222.02 138.71 223.09 133.91
  Q 225.47 123.27 217.50 116.89"
/>
<path stroke="#4aa5f2" vector-effect="non-scaling-stroke" d="
  M 186.46 299.81
  Q 187.99 298.59 187.98 297.00
  Q 187.77 269.74 187.88 242.53
  C 187.88 241.13 187.50 239.82 187.66 238.40
  Q 187.80 237.18 187.82 235.98
  Q 188.12 205.94 188.13 179.21
  Q 188.13 178.39 187.38 177.79
  A 0.56 0.55 -48.3 0 1 187.34 176.97
  Q 188.00 176.29 187.91 175.26
  Q 187.87 174.76 187.60 174.34
  Q 187.03 173.45 187.75 172.69
  Q 188.12 172.30 187.80 171.86
  Q 187.53 171.50 187.41 171.06
  Q 187.26 170.53 187.54 170.05
  Q 187.88 169.47 187.53 168.88
  Q 187.30 168.50 187.67 168.26
  Q 187.99 168.05 187.89 167.62
  Q 187.67 166.81 187.16 167.47
  Q 186.86 167.85 186.39 167.91
  Q 185.44 168.01 186.26 167.52
  Q 186.41 167.42 186.59 167.37
  Q 187.12 167.19 186.78 166.74
  Q 186.53 166.41 186.48 165.90"
/>
<path stroke="#46c4f8" vector-effect="non-scaling-stroke" d="
  M 99.78 255.82
  Q 99.59 253.99 100.30 253.29
  Q 100.35 253.24 100.37 253.16
  Q 100.39 252.99 100.29 252.88
  Q 100.12 252.72 100.18 252.50
  Q 100.60 250.85 100.46 249.05
  Q 99.99 242.92 100.48 237.42
  Q 100.64 235.50 100.32 233.31
  Q 99.98 231.01 100.13 228.81
  Q 100.66 221.07 100.15 212.80
  Q 100.11 212.29 100.29 211.80
  C 100.59 210.98 100.12 210.27 100.12 209.43
  Q 100.17 185.97 100.21 162.55
  Q 100.21 161.70 100.80 161.13
  Q 101.14 160.80 100.67 160.79
  Q 100.51 160.79 100.42 160.65
  Q 100.16 160.26 100.16 159.75
  Q 100.14 146.89 100.12 134.03
  Q 100.06 98.61 100.22 60.55
  Q 100.23 60.26 100.14 60.00
  Q 100.04 59.69 100.21 59.38
  Q 100.38 59.09 100.38 58.74
  L 100.36 12.32
  Q 100.36 11.95 100.70 11.82
  Q 101.29 11.60 101.11 11.03
  Q 100.96 10.54 100.94 10.05
  Q 100.89 8.62 100.95 6.94"
/>
<path stroke="#5081ec" vector-effect="non-scaling-stroke" d="
  M 289.29 28.69
  Q 289.09 28.87 288.78 28.95
  Q 288.47 29.02 288.37 29.33
  Q 288.32 29.50 288.42 29.67
  Q 288.50 29.78 288.63 29.78
  Q 288.68 29.78 288.72 29.74
  Q 288.97 29.48 288.91 29.84
  Q 288.80 30.48 288.21 30.64
  Q 287.58 30.82 287.58 31.48
  L 287.26 233.22"
/>
<path stroke="#44cefa" vector-effect="non-scaling-stroke" d="
  M 74.97 245.95
  C 75.25 245.28 75.28 244.54 74.83 243.96
  Q 74.30 243.27 74.86 242.50
  Q 75.04 242.26 75.04 241.97
  Q 75.10 234.87 75.67 227.45
  Q 76.32 218.94 76.18 209.41
  Q 76.05 200.48 76.06 191.57
  Q 76.08 175.13 76.14 159.73
  Q 76.15 159.21 76.63 159.00
  Q 76.78 158.94 76.89 158.81
  Q 77.15 158.51 76.77 158.41
  Q 76.72 158.39 76.67 158.41
  Q 76.11 158.62 76.11 158.01
  Q 76.10 143.85 76.11 126.67
  Q 76.13 85.47 75.89 39.75
  Q 75.88 39.36 76.00 39.00
  Q 76.12 38.62 76.12 38.00
  Q 76.15 31.61 75.91 25.22
  Q 75.82 22.76 75.37 20.30
  Q 74.93 17.88 74.45 15.45
  Q 74.36 14.97 74.72 14.64
  Q 75.58 13.87 75.47 12.86"
/>
<path stroke="#42dafc" vector-effect="non-scaling-stroke" d="
  M 41.43 230.04
  Q 42.21 229.84 41.75 228.84
  Q 41.55 228.39 41.07 228.24
  Q 40.37 228.03 40.58 227.26
  Q 40.62 227.08 40.83 227.15
  Q 41.10 227.24 41.09 226.96
  Q 41.01 223.10 41.04 218.95
  Q 41.07 214.93 41.59 211.00
  Q 42.25 206.04 42.29 200.82
  Q 42.32 197.42 42.61 194.27
  Q 43.30 186.83 43.09 180.00
  Q 41.99 145.01 42.53 109.10
  Q 42.63 102.38 42.81 95.46
  Q 43.07 84.75 42.50 70.51
  Q 42.18 62.29 42.41 56.61
  A 3.96 1.99 -90.0 0 0 42.41 56.05
  Q 42.10 48.74 40.93 39.90
  Q 40.86 39.34 41.02 38.79
  Q 41.26 37.98 40.79 37.26
  A 1.42 1.42 0.0 0 1 40.58 36.28
  Q 40.94 34.03 40.77 31.61
  Q 40.72 30.87 40.04 30.57
  Q 39.66 30.41 39.99 30.50
  Q 40.13 30.54 40.30 30.55
  Q 40.68 30.57 40.63 30.20
  Q 40.59 29.89 39.93 29.56"
/>
</g>
<path fill="#49aaf3" d="
  M 189.19 1.20
  Q 189.49 1.92 190.75 1.83
  Q 191.48 1.78 191.06 2.38
  Q 190.40 3.32 190.90 4.63
  Q 191.13 5.23 190.97 5.85
  Q 190.45 7.83 191.00 10.04
  Q 191.12 10.49 190.97 10.94
  Q 190.44 12.56 190.67 14.17
  Q 191.23 17.97 191.09 21.48
  Q 190.98 24.26 191.17 27.06
  Q 191.21 27.63 190.81 28.06
  Q 190.47 28.41 190.37 28.89
  Q 189.94 30.85 191.41 31.59
  Q 191.89 31.83 191.63 32.31
  L 191.41 32.69
  Q 191.16 33.16 191.17 33.69
  Q 191.23 36.72 191.58 39.77
  Q 191.92 42.66 191.84 45.76
  Q 191.58 55.62 191.38 58.75
  Q 191.13 62.63 191.15 65.90
  C 191.16 68.36 190.47 70.59 190.38 73.05
  Q 190.07 80.95 190.00 89.10
  Q 190.00 89.77 189.44 90.20
  Q 188.92 90.62 189.22 91.21
  Q 189.74 92.26 189.36 93.29
  Q 189.14 93.88 189.77 93.97
  Q 190.05 94.01 190.18 94.25
  Q 190.96 95.75 189.83 94.50
  Q 187.87 92.33 187.15 93.87
  L 150.22 65.79
  Q 150.77 64.94 151.79 65.95
  Q 152.12 66.28 152.54 66.08
  Q 152.86 65.94 152.99 66.28
  Q 153.19 66.80 153.75 66.78
  Q 154.50 66.76 154.61 66.07
  Q 155.02 63.53 155.76 60.72
  A 0.67 0.65 41.0 0 0 155.72 60.25
  Q 155.65 60.08 155.47 60.03
  Q 155.02 59.92 155.03 59.46
  Q 155.19 46.46 155.34 33.46
  C 155.36 31.41 156.04 29.51 155.69 27.50
  Q 155.33 25.46 155.38 23.33
  Q 155.49 18.48 155.67 13.75
  Q 155.71 12.59 155.08 11.81
  Q 154.87 11.55 155.07 11.30
  Q 155.49 10.79 155.35 10.06
  A 1.37 1.37 0.0 0 1 155.39 9.37
  Q 156.54 5.93 156.09 2.25
  Q 156.06 1.98 155.79 1.94
  Q 155.65 1.92 155.51 1.91
  Q 155.23 1.88 155.51 1.84
  Q 155.60 1.83 155.66 1.81
  Q 156.16 1.61 155.62 1.55
  Q 154.39 1.43 154.51 0.84
  Q 167.88 0.30 181.26 0.53
  Q 182.98 0.56 185.21 0.83
  Q 187.22 1.06 189.19 1.20
  Z"
/>
<path fill="#48b6f5" d="
  M 154.51 0.84
  Q 154.39 1.43 155.62 1.55
  Q 156.16 1.61 155.66 1.81
  Q 155.60 1.83 155.51 1.84
  Q 155.23 1.88 155.51 1.91
  Q 155.65 1.92 155.79 1.94
  Q 156.06 1.98 156.09 2.25
  Q 156.54 5.93 155.39 9.37
  A 1.37 1.37 0.0 0 0 155.35 10.06
  Q 155.49 10.79 155.07 11.30
  Q 154.87 11.55 155.08 11.81
  Q 155.71 12.59 155.67 13.75
  Q 155.49 18.48 155.38 23.33
  Q 155.33 25.46 155.69 27.50
  C 156.04 29.51 155.36 31.41 155.34 33.46
  Q 155.19 46.46 155.03 59.46
  Q 155.02 59.92 155.47 60.03
  Q 155.65 60.08 155.72 60.25
  A 0.67 0.65 41.0 0 1 155.76 60.72
  Q 155.02 63.53 154.61 66.07
  Q 154.50 66.76 153.75 66.78
  Q 153.19 66.80 152.99 66.28
  Q 152.86 65.94 152.54 66.08
  Q 152.12 66.28 151.79 65.95
  Q 150.77 64.94 150.22 65.79
  Q 145.00 61.63 140.17 64.88
  Q 134.06 69.00 134.08 78.44
  Q 134.21 127.96 134.05 179.70
  C 134.04 185.71 135.13 190.99 140.19 194.34
  C 145.98 198.18 150.81 193.08 155.07 189.84
  Q 156.37 190.25 154.37 192.04
  Q 154.02 192.36 153.54 192.42
  Q 152.93 192.49 152.40 192.81
  A 0.15 0.15 0.0 0 0 152.51 193.08
  Q 152.94 193.00 153.24 193.33
  Q 153.60 193.74 153.37 194.23
  Q 153.04 194.97 153.41 195.60
  Q 153.67 196.02 153.61 196.52
  L 153.25 199.51
  Q 153.18 200.08 153.51 199.61
  Q 153.89 199.07 154.52 199.29
  A 1.05 1.04 11.1 0 1 155.21 200.31
  C 154.77 210.83 155.59 221.08 155.61 231.48
  Q 155.63 244.91 155.57 257.59
  Q 155.55 260.57 155.39 263.42
  Q 155.06 269.57 155.06 276.01
  Q 155.06 277.43 154.39 278.74
  Q 154.32 278.88 154.16 278.84
  Q 153.86 278.78 153.83 279.08
  Q 153.76 279.70 154.83 280.81
  L 131.44 269.17
  Q 131.12 268.49 131.47 267.49
  Q 131.59 267.14 131.29 266.92
  L 129.55 265.69
  Q 129.30 265.52 129.39 265.22
  Q 129.81 263.73 129.42 262.07
  Q 129.17 261.01 129.33 259.84
  Q 130.29 252.92 130.23 243.90
  Q 130.10 225.99 130.10 208.13
  C 130.10 204.65 129.76 201.25 129.88 197.79
  Q 130.01 193.92 130.02 190.52
  Q 130.28 123.01 130.05 53.05
  Q 130.04 48.45 129.79 43.50
  Q 129.56 38.74 129.95 34.17
  Q 130.11 32.32 131.99 32.84
  Q 132.52 32.99 132.69 33.50
  C 133.01 34.46 132.78 35.21 132.82 36.14
  Q 133.21 45.10 133.11 53.62
  Q 133.11 53.63 133.12 53.63
  Q 133.12 53.63 133.12 53.63
  Q 133.18 53.63 133.18 53.57
  C 133.11 46.18 132.80 38.55 133.40 31.17
  Q 133.76 26.80 133.62 24.00
  Q 133.34 18.31 133.12 12.24
  C 133.07 10.84 133.53 9.03 133.15 7.15
  Q 132.92 6.00 133.57 5.13
  Q 133.89 4.70 133.46 4.37
  Q 132.61 3.73 132.96 2.49
  L 154.51 0.84
  Z"
/>
<path fill="#4b9ff1" d="
  M 189.19 1.20
  Q 205.59 2.17 221.86 4.70
  Q 221.62 8.12 221.56 11.25
  Q 221.55 11.93 221.67 12.60
  Q 221.81 13.35 221.76 13.92
  Q 221.57 16.22 221.80 18.66
  Q 222.13 21.97 222.11 23.37
  Q 222.00 31.23 221.69 39.20
  C 221.56 42.30 222.00 45.36 221.85 48.43
  Q 221.70 51.70 221.76 55.33
  Q 222.00 68.21 221.85 81.25
  Q 221.83 82.77 221.35 86.29
  Q 221.18 87.51 221.11 88.67
  Q 221.04 89.98 220.79 91.31
  Q 219.69 97.05 220.22 106.23
  A 1.08 1.03 -32.1 0 1 220.06 106.85
  Q 219.74 107.37 219.93 107.92
  C 220.44 109.43 220.09 112.18 220.01 114.50
  Q 219.93 116.85 222.09 118.14
  Q 222.27 118.24 222.20 118.44
  Q 222.16 118.56 222.09 118.67
  Q 221.80 119.09 221.41 118.77
  Q 219.13 116.88 217.50 116.89
  L 187.15 93.87
  Q 187.87 92.33 189.83 94.50
  Q 190.96 95.75 190.18 94.25
  Q 190.05 94.01 189.77 93.97
  Q 189.14 93.88 189.36 93.29
  Q 189.74 92.26 189.22 91.21
  Q 188.92 90.62 189.44 90.20
  Q 190.00 89.77 190.00 89.10
  Q 190.07 80.95 190.38 73.05
  C 190.47 70.59 191.16 68.36 191.15 65.90
  Q 191.13 62.63 191.38 58.75
  Q 191.58 55.62 191.84 45.76
  Q 191.92 42.66 191.58 39.77
  Q 191.23 36.72 191.17 33.69
  Q 191.16 33.16 191.41 32.69
  L 191.63 32.31
  Q 191.89 31.83 191.41 31.59
  Q 189.94 30.85 190.37 28.89
  Q 190.47 28.41 190.81 28.06
  Q 191.21 27.63 191.17 27.06
  Q 190.98 24.26 191.09 21.48
  Q 191.23 17.97 190.67 14.17
  Q 190.44 12.56 190.97 10.94
  Q 191.12 10.49 191.00 10.04
  Q 190.45 7.83 190.97 5.85
  Q 191.13 5.23 190.90 4.63
  Q 190.40 3.32 191.06 2.38
  Q 191.48 1.78 190.75 1.83
  Q 189.49 1.92 189.19 1.20
  Z"
/>
<path fill="#46bff7" d="
  M 132.96 2.49
  Q 132.61 3.73 133.46 4.37
  Q 133.89 4.70 133.57 5.13
  Q 132.92 6.00 133.15 7.15
  C 133.53 9.03 133.07 10.84 133.12 12.24
  Q 133.34 18.31 133.62 24.00
  Q 133.76 26.80 133.40 31.17
  C 132.80 38.55 133.11 46.18 133.18 53.57
  Q 133.18 53.63 133.12 53.63
  Q 133.12 53.63 133.12 53.63
  Q 133.11 53.63 133.11 53.62
  Q 133.21 45.10 132.82 36.14
  C 132.78 35.21 133.01 34.46 132.69 33.50
  Q 132.52 32.99 131.99 32.84
  Q 130.11 32.32 129.95 34.17
  Q 129.56 38.74 129.79 43.50
  Q 130.04 48.45 130.05 53.05
  Q 130.28 123.01 130.02 190.52
  Q 130.01 193.92 129.88 197.79
  C 129.76 201.25 130.10 204.65 130.10 208.13
  Q 130.10 225.99 130.23 243.90
  Q 130.29 252.92 129.33 259.84
  Q 129.17 261.01 129.42 262.07
  Q 129.81 263.73 129.39 265.22
  Q 129.30 265.52 129.55 265.69
  L 131.29 266.92
  Q 131.59 267.14 131.47 267.49
  Q 131.12 268.49 131.44 269.17
  L 99.78 255.82
  Q 99.59 253.99 100.30 253.29
  Q 100.35 253.24 100.37 253.16
  Q 100.39 252.99 100.29 252.88
  Q 100.12 252.72 100.18 252.50
  Q 100.60 250.85 100.46 249.05
  Q 99.99 242.92 100.48 237.42
  Q 100.64 235.50 100.32 233.31
  Q 99.98 231.01 100.13 228.81
  Q 100.66 221.07 100.15 212.80
  Q 100.11 212.29 100.29 211.80
  C 100.59 210.98 100.12 210.27 100.12 209.43
  Q 100.17 185.97 100.21 162.55
  Q 100.21 161.70 100.80 161.13
  Q 101.14 160.80 100.67 160.79
  Q 100.51 160.79 100.42 160.65
  Q 100.16 160.26 100.16 159.75
  Q 100.14 146.89 100.12 134.03
  Q 100.06 98.61 100.22 60.55
  Q 100.23 60.26 100.14 60.00
  Q 100.04 59.69 100.21 59.38
  Q 100.38 59.09 100.38 58.74
  L 100.36 12.32
  Q 100.36 11.95 100.70 11.82
  Q 101.29 11.60 101.11 11.03
  Q 100.96 10.54 100.94 10.05
  Q 100.89 8.62 100.95 6.94
  Q 116.62 3.99 132.96 2.49
  Z"
/>
<path fill="#4e8fef" d="
  M 221.86 4.70
  Q 239.45 7.07 257.18 13.03
  L 256.13 30.79
  Q 256.11 31.25 256.46 31.56
  Q 256.76 31.82 256.71 32.26
  C 256.54 33.90 256.25 35.47 256.39 37.17
  Q 256.78 42.32 256.37 47.45
  Q 256.33 47.95 256.59 48.38
  Q 257.47 49.79 256.60 51.22
  Q 256.34 51.65 256.32 52.15
  Q 256.03 57.83 256.19 63.15
  Q 256.33 67.71 256.39 72.49
  Q 256.53 84.44 256.23 98.72
  Q 256.22 99.30 256.44 99.80
  Q 256.64 100.29 256.52 100.78
  C 256.06 102.63 256.39 105.33 256.33 107.30
  Q 256.31 107.82 256.67 108.20
  Q 256.96 108.49 256.69 108.79
  Q 256.32 109.19 256.33 109.73
  Q 256.39 112.82 256.38 116.94
  A 66.66 2.56 88.7 0 0 256.37 124.88
  Q 256.45 155.76 256.27 183.91
  A 36.54 34.72 68.1 0 0 256.58 189.04
  Q 256.61 189.27 256.35 192.02
  Q 256.21 193.45 256.23 194.91
  Q 256.45 207.83 256.36 220.39
  C 256.35 221.57 255.94 222.67 256.15 223.84
  Q 256.37 225.02 256.37 226.25
  Q 256.37 230.19 256.35 234.45
  Q 256.35 234.65 256.36 234.85
  Q 256.53 238.78 255.85 242.48
  Q 255.70 243.30 256.13 244.02
  Q 256.40 244.49 256.05 244.91
  Q 255.31 245.79 254.98 246.99
  Q 238.18 251.64 220.71 253.56
  L 219.61 253.41
  Q 218.96 253.32 219.18 252.70
  Q 219.33 252.31 219.06 251.92
  Q 218.71 251.41 218.69 250.78
  Q 218.63 249.10 218.62 247.42
  Q 218.62 246.57 218.91 244.09
  Q 219.13 242.20 218.83 240.29
  Q 218.59 238.72 218.85 237.27
  Q 219.12 235.78 219.04 234.16
  Q 218.95 232.27 218.93 230.32
  Q 218.90 226.84 218.81 223.50
  Q 218.72 219.98 218.81 216.70
  C 218.85 215.22 218.27 213.94 218.59 212.48
  C 219.02 210.49 218.79 208.57 218.87 206.58
  Q 219.23 197.12 219.20 193.00
  Q 219.06 174.75 219.14 154.35
  C 219.14 152.63 219.84 151.40 218.76 149.74
  Q 218.26 148.98 218.88 148.25
  A 1.28 1.22 -24.6 0 0 219.18 147.50
  L 219.34 144.12
  Q 219.37 143.56 218.86 143.31
  Q 218.59 143.18 218.38 143.33
  Q 217.61 143.89 217.15 144.72
  Q 216.92 145.14 216.45 145.17
  Q 215.99 145.20 216.01 144.74
  Q 216.02 144.34 215.71 143.64
  C 219.40 140.81 222.02 138.71 223.09 133.91
  Q 225.47 123.27 217.50 116.89
  Q 219.13 116.88 221.41 118.77
  Q 221.80 119.09 222.09 118.67
  Q 222.16 118.56 222.20 118.44
  Q 222.27 118.24 222.09 118.14
  Q 219.93 116.85 220.01 114.50
  C 220.09 112.18 220.44 109.43 219.93 107.92
  Q 219.74 107.37 220.06 106.85
  A 1.08 1.03 -32.1 0 0 220.22 106.23
  Q 219.69 97.05 220.79 91.31
  Q 221.04 89.98 221.11 88.67
  Q 221.18 87.51 221.35 86.29
  Q 221.83 82.77 221.85 81.25
  Q 222.00 68.21 221.76 55.33
  Q 221.70 51.70 221.85 48.43
  C 222.00 45.36 221.56 42.30 221.69 39.20
  Q 222.00 31.23 222.11 23.37
  Q 222.13 21.97 221.80 18.66
  Q 221.57 16.22 221.76 13.92
  Q 221.81 13.35 221.67 12.60
  Q 221.55 11.93 221.56 11.25
  Q 221.62 8.12 221.86 4.70
  Z"
/>
<path fill="#45c9f9" d="
  M 100.95 6.94
  Q 100.89 8.62 100.94 10.05
  Q 100.96 10.54 101.11 11.03
  Q 101.29 11.60 100.70 11.82
  Q 100.36 11.95 100.36 12.32
  L 100.38 58.74
  Q 100.38 59.09 100.21 59.38
  Q 100.04 59.69 100.14 60.00
  Q 100.23 60.26 100.22 60.55
  Q 100.06 98.61 100.12 134.03
  Q 100.14 146.89 100.16 159.75
  Q 100.16 160.26 100.42 160.65
  Q 100.51 160.79 100.67 160.79
  Q 101.14 160.80 100.80 161.13
  Q 100.21 161.70 100.21 162.55
  Q 100.17 185.97 100.12 209.43
  C 100.12 210.27 100.59 210.98 100.29 211.80
  Q 100.11 212.29 100.15 212.80
  Q 100.66 221.07 100.13 228.81
  Q 99.98 231.01 100.32 233.31
  Q 100.64 235.50 100.48 237.42
  Q 99.99 242.92 100.46 249.05
  Q 100.60 250.85 100.18 252.50
  Q 100.12 252.72 100.29 252.88
  Q 100.39 252.99 100.37 253.16
  Q 100.35 253.24 100.30 253.29
  Q 99.59 253.99 99.78 255.82
  L 74.97 245.95
  C 75.25 245.28 75.28 244.54 74.83 243.96
  Q 74.30 243.27 74.86 242.50
  Q 75.04 242.26 75.04 241.97
  Q 75.10 234.87 75.67 227.45
  Q 76.32 218.94 76.18 209.41
  Q 76.05 200.48 76.06 191.57
  Q 76.08 175.13 76.14 159.73
  Q 76.15 159.21 76.63 159.00
  Q 76.78 158.94 76.89 158.81
  Q 77.15 158.51 76.77 158.41
  Q 76.72 158.39 76.67 158.41
  Q 76.11 158.62 76.11 158.01
  Q 76.10 143.85 76.11 126.67
  Q 76.13 85.47 75.89 39.75
  Q 75.88 39.36 76.00 39.00
  Q 76.12 38.62 76.12 38.00
  Q 76.15 31.61 75.91 25.22
  Q 75.82 22.76 75.37 20.30
  Q 74.93 17.88 74.45 15.45
  Q 74.36 14.97 74.72 14.64
  Q 75.58 13.87 75.47 12.86
  Q 87.77 9.13 100.95 6.94
  Z"
/>
<path fill="#43d3fb" d="
  M 75.47 12.86
  Q 75.58 13.87 74.72 14.64
  Q 74.36 14.97 74.45 15.45
  Q 74.93 17.88 75.37 20.30
  Q 75.82 22.76 75.91 25.22
  Q 76.15 31.61 76.12 38.00
  Q 76.12 38.62 76.00 39.00
  Q 75.88 39.36 75.89 39.75
  Q 76.13 85.47 76.11 126.67
  Q 76.10 143.85 76.11 158.01
  Q 76.11 158.62 76.67 158.41
  Q 76.72 158.39 76.77 158.41
  Q 77.15 158.51 76.89 158.81
  Q 76.78 158.94 76.63 159.00
  Q 76.15 159.21 76.14 159.73
  Q 76.08 175.13 76.06 191.57
  Q 76.05 200.48 76.18 209.41
  Q 76.32 218.94 75.67 227.45
  Q 75.10 234.87 75.04 241.97
  Q 75.04 242.26 74.86 242.50
  Q 74.30 243.27 74.83 243.96
  C 75.28 244.54 75.25 245.28 74.97 245.95
  Q 65.90 242.33 56.97 238.30
  Q 48.99 234.70 41.43 230.04
  Q 42.21 229.84 41.75 228.84
  Q 41.55 228.39 41.07 228.24
  Q 40.37 228.03 40.58 227.26
  Q 40.62 227.08 40.83 227.15
  Q 41.10 227.24 41.09 226.96
  Q 41.01 223.10 41.04 218.95
  Q 41.07 214.93 41.59 211.00
  Q 42.25 206.04 42.29 200.82
  Q 42.32 197.42 42.61 194.27
  Q 43.30 186.83 43.09 180.00
  Q 41.99 145.01 42.53 109.10
  Q 42.63 102.38 42.81 95.46
  Q 43.07 84.75 42.50 70.51
  Q 42.18 62.29 42.41 56.61
  A 3.96 1.99 -90.0 0 0 42.41 56.05
  Q 42.10 48.74 40.93 39.90
  Q 40.86 39.34 41.02 38.79
  Q 41.26 37.98 40.79 37.26
  A 1.42 1.42 0.0 0 1 40.58 36.28
  Q 40.94 34.03 40.77 31.61
  Q 40.72 30.87 40.04 30.57
  Q 39.66 30.41 39.99 30.50
  Q 40.13 30.54 40.30 30.55
  Q 40.68 30.57 40.63 30.20
  Q 40.59 29.89 39.93 29.56
  Q 44.71 26.29 46.00 25.56
  Q 60.01 17.58 75.47 12.86
  Z"
/>
<path fill="#4f86ec" d="
  M 257.18 13.03
  Q 259.44 13.80 262.44 14.97
  Q 273.08 19.12 283.04 24.73
  Q 286.28 26.55 289.29 28.69
  Q 289.09 28.87 288.78 28.95
  Q 288.47 29.02 288.37 29.33
  Q 288.32 29.50 288.42 29.67
  Q 288.50 29.78 288.63 29.78
  Q 288.68 29.78 288.72 29.74
  Q 288.97 29.48 288.91 29.84
  Q 288.80 30.48 288.21 30.64
  Q 287.58 30.82 287.58 31.48
  L 287.26 233.22
  Q 272.63 242.40 254.98 246.99
  Q 255.31 245.79 256.05 244.91
  Q 256.40 244.49 256.13 244.02
  Q 255.70 243.30 255.85 242.48
  Q 256.53 238.78 256.36 234.85
  Q 256.35 234.65 256.35 234.45
  Q 256.37 230.19 256.37 226.25
  Q 256.37 225.02 256.15 223.84
  C 255.94 222.67 256.35 221.57 256.36 220.39
  Q 256.45 207.83 256.23 194.91
  Q 256.21 193.45 256.35 192.02
  Q 256.61 189.27 256.58 189.04
  A 36.54 34.72 68.1 0 1 256.27 183.91
  Q 256.45 155.76 256.37 124.88
  A 66.66 2.56 88.7 0 1 256.38 116.94
  Q 256.39 112.82 256.33 109.73
  Q 256.32 109.19 256.69 108.79
  Q 256.96 108.49 256.67 108.20
  Q 256.31 107.82 256.33 107.30
  C 256.39 105.33 256.06 102.63 256.52 100.78
  Q 256.64 100.29 256.44 99.80
  Q 256.22 99.30 256.23 98.72
  Q 256.53 84.44 256.39 72.49
  Q 256.33 67.71 256.19 63.15
  Q 256.03 57.83 256.32 52.15
  Q 256.34 51.65 256.60 51.22
  Q 257.47 49.79 256.59 48.38
  Q 256.33 47.95 256.37 47.45
  Q 256.78 42.32 256.39 37.17
  C 256.25 35.47 256.54 33.90 256.71 32.26
  Q 256.76 31.82 256.46 31.56
  Q 256.11 31.25 256.13 30.79
  L 257.18 13.03
  Z"
/>
<path fill="#507ceb" d="
  M 289.29 28.69
  Q 301.22 36.48 309.69 47.80
  C 321.71 63.87 327.54 82.68 330.38 103.13
  Q 332.97 121.78 332.47 138.92
  Q 331.96 156.25 328.39 171.92
  Q 324.08 190.78 314.24 206.53
  Q 304.10 222.73 287.26 233.22
  L 287.58 31.48
  Q 287.58 30.82 288.21 30.64
  Q 288.80 30.48 288.91 29.84
  Q 288.97 29.48 288.72 29.74
  Q 288.68 29.78 288.63 29.78
  Q 288.50 29.78 288.42 29.67
  Q 288.32 29.50 288.37 29.33
  Q 288.47 29.02 288.78 28.95
  Q 289.09 28.87 289.29 28.69
  Z"
/>
<path fill="#41e0fd" d="
  M 39.93 29.56
  Q 40.59 29.89 40.63 30.20
  Q 40.68 30.57 40.30 30.55
  Q 40.13 30.54 39.99 30.50
  Q 39.66 30.41 40.04 30.57
  Q 40.72 30.87 40.77 31.61
  Q 40.94 34.03 40.58 36.28
  A 1.42 1.42 0.0 0 0 40.79 37.26
  Q 41.26 37.98 41.02 38.79
  Q 40.86 39.34 40.93 39.90
  Q 42.10 48.74 42.41 56.05
  A 3.96 1.99 -90.0 0 1 42.41 56.61
  Q 42.18 62.29 42.50 70.51
  Q 43.07 84.75 42.81 95.46
  Q 42.63 102.38 42.53 109.10
  Q 41.99 145.01 43.09 180.00
  Q 43.30 186.83 42.61 194.27
  Q 42.32 197.42 42.29 200.82
  Q 42.25 206.04 41.59 211.00
  Q 41.07 214.93 41.04 218.95
  Q 41.01 223.10 41.09 226.96
  Q 41.10 227.24 40.83 227.15
  Q 40.62 227.08 40.58 227.26
  Q 40.37 228.03 41.07 228.24
  Q 41.55 228.39 41.75 228.84
  Q 42.21 229.84 41.43 230.04
  Q 20.15 217.29 11.57 195.99
  Q 5.60 181.17 3.51 165.11
  C 1.52 149.78 0.86 134.63 1.11 119.43
  Q 1.26 109.99 3.28 95.99
  Q 5.18 82.86 9.16 71.22
  Q 10.63 66.93 13.00 61.97
  Q 16.00 55.70 17.42 53.24
  Q 19.47 49.69 21.59 47.39
  Q 22.22 46.69 22.54 45.85
  Q 22.70 45.42 23.01 45.09
  Q 30.74 37.03 33.90 34.15
  Q 35.12 33.04 39.93 29.56
  Z"
/>
<path fill="#ffffff" d="
  M 150.22 65.79
  L 187.15 93.87
  L 217.50 116.89
  Q 225.47 123.27 223.09 133.91
  C 222.02 138.71 219.40 140.81 215.71 143.64
  L 186.48 165.90
  L 155.07 189.84
  C 150.81 193.08 145.98 198.18 140.19 194.34
  C 135.13 190.99 134.04 185.71 134.05 179.70
  Q 134.21 127.96 134.08 78.44
  Q 134.06 69.00 140.17 64.88
  Q 145.00 61.63 150.22 65.79
  Z"
/>
<path fill="#4b9ff1" d="
  M 220.71 253.56
  Q 217.38 254.23 214.01 254.87
  C 207.90 256.04 207.57 262.97 207.53 267.99
  C 207.47 276.58 207.38 285.28 207.83 293.93
  Q 208.37 304.25 208.52 315.36
  A 0.78 0.77 -69.0 0 1 207.22 315.94
  Q 197.65 307.13 186.46 299.81
  Q 187.99 298.59 187.98 297.00
  Q 187.77 269.74 187.88 242.53
  C 187.88 241.13 187.50 239.82 187.66 238.40
  Q 187.80 237.18 187.82 235.98
  Q 188.12 205.94 188.13 179.21
  Q 188.13 178.39 187.38 177.79
  A 0.56 0.55 -48.3 0 1 187.34 176.97
  Q 188.00 176.29 187.91 175.26
  Q 187.87 174.76 187.60 174.34
  Q 187.03 173.45 187.75 172.69
  Q 188.12 172.30 187.80 171.86
  Q 187.53 171.50 187.41 171.06
  Q 187.26 170.53 187.54 170.05
  Q 187.88 169.47 187.53 168.88
  Q 187.30 168.50 187.67 168.26
  Q 187.99 168.05 187.89 167.62
  Q 187.67 166.81 187.16 167.47
  Q 186.86 167.85 186.39 167.91
  Q 185.44 168.01 186.26 167.52
  Q 186.41 167.42 186.59 167.37
  Q 187.12 167.19 186.78 166.74
  Q 186.53 166.41 186.48 165.90
  L 215.71 143.64
  Q 216.02 144.34 216.01 144.74
  Q 215.99 145.20 216.45 145.17
  Q 216.92 145.14 217.15 144.72
  Q 217.61 143.89 218.38 143.33
  Q 218.59 143.18 218.86 143.31
  Q 219.37 143.56 219.34 144.12
  L 219.18 147.50
  A 1.28 1.22 -24.6 0 1 218.88 148.25
  Q 218.26 148.98 218.76 149.74
  C 219.84 151.40 219.14 152.63 219.14 154.35
  Q 219.06 174.75 219.20 193.00
  Q 219.23 197.12 218.87 206.58
  C 218.79 208.57 219.02 210.49 218.59 212.48
  C 218.27 213.94 218.85 215.22 218.81 216.70
  Q 218.72 219.98 218.81 223.50
  Q 218.90 226.84 218.93 230.32
  Q 218.95 232.27 219.04 234.16
  Q 219.12 235.78 218.85 237.27
  Q 218.59 238.72 218.83 240.29
  Q 219.13 242.20 218.91 244.09
  Q 218.62 246.57 218.62 247.42
  Q 218.63 249.10 218.69 250.78
  Q 218.71 251.41 219.06 251.92
  Q 219.33 252.31 219.18 252.70
  Q 218.96 253.32 219.61 253.41
  L 220.71 253.56
  Z"
/>
<path fill="#49aaf3" d="
  M 186.48 165.90
  Q 186.53 166.41 186.78 166.74
  Q 187.12 167.19 186.59 167.37
  Q 186.41 167.42 186.26 167.52
  Q 185.44 168.01 186.39 167.91
  Q 186.86 167.85 187.16 167.47
  Q 187.67 166.81 187.89 167.62
  Q 187.99 168.05 187.67 168.26
  Q 187.30 168.50 187.53 168.88
  Q 187.88 169.47 187.54 170.05
  Q 187.26 170.53 187.41 171.06
  Q 187.53 171.50 187.80 171.86
  Q 188.12 172.30 187.75 172.69
  Q 187.03 173.45 187.60 174.34
  Q 187.87 174.76 187.91 175.26
  Q 188.00 176.29 187.34 176.97
  A 0.56 0.55 -48.3 0 0 187.38 177.79
  Q 188.13 178.39 188.13 179.21
  Q 188.12 205.94 187.82 235.98
  Q 187.80 237.18 187.66 238.40
  C 187.50 239.82 187.88 241.13 187.88 242.53
  Q 187.77 269.74 187.98 297.00
  Q 187.99 298.59 186.46 299.81
  Q 171.11 289.21 154.83 280.81
  Q 153.76 279.70 153.83 279.08
  Q 153.86 278.78 154.16 278.84
  Q 154.32 278.88 154.39 278.74
  Q 155.06 277.43 155.06 276.01
  Q 155.06 269.57 155.39 263.42
  Q 155.55 260.57 155.57 257.59
  Q 155.63 244.91 155.61 231.48
  C 155.59 221.08 154.77 210.83 155.21 200.31
  A 1.05 1.04 11.1 0 0 154.52 199.29
  Q 153.89 199.07 153.51 199.61
  Q 153.18 200.08 153.25 199.51
  L 153.61 196.52
  Q 153.67 196.02 153.41 195.60
  Q 153.04 194.97 153.37 194.23
  Q 153.60 193.74 153.24 193.33
  Q 152.94 193.00 152.51 193.08
  A 0.15 0.15 0.0 0 1 152.40 192.81
  Q 152.93 192.49 153.54 192.42
  Q 154.02 192.36 154.37 192.04
  Q 156.37 190.25 155.07 189.84
  L 186.48 165.90
  Z"
/>
</svg>
